<svg xmlns="http://www.w3.org/2000/svg" xmlns:xlink="http://www.w3.org/1999/xlink" version="1.1" width="594.95999" height="841.92" viewBox="0 0 594.95999 841.92">
<defs>
<clipPath id="clip_0">
<path transform="matrix(.24,0,0,.24,0,0)" d="M259.375 112.5H2160.3516V3415.5274H259.375Z" fill-rule="evenodd"/>
</clipPath>
</defs>
<g clip-path="url(#clip_0)">
<path transform="matrix(.90000006,0,0,.90000006,62.25,27)" d="M27 44H28V63H27Z" fill="#c0c0c0"/>
<path transform="matrix(.90000006,0,0,.90000006,62.25,27)" d="M27 63H28V83H27Z" fill="#c0c0c0"/>
<path transform="matrix(.90000006,0,0,.90000006,62.25,27)" d="M27 83H28V102H27Z" fill="#c0c0c0"/>
<path transform="matrix(.90000006,0,0,.90000006,62.25,27)" d="M27 102H28V121H27Z" fill="#c0c0c0"/>
<path transform="matrix(.90000006,0,0,.90000006,62.25,27)" d="M27 121H28V141H27Z" fill="#c0c0c0"/>
<path transform="matrix(.90000006,0,0,.90000006,62.25,27)" d="M27 141H28V160H27Z" fill="#c0c0c0"/>
<path transform="matrix(.90000006,0,0,.90000006,62.25,27)" d="M27 160H28V179H27Z" fill="#c0c0c0"/>
<path transform="matrix(.90000006,0,0,.90000006,62.25,27)" d="M27 179H28V199H27Z" fill="#c0c0c0"/>
<path transform="matrix(.90000006,0,0,.90000006,62.25,27)" d="M27 199H28V218H27Z" fill="#c0c0c0"/>
<path transform="matrix(.90000006,0,0,.90000006,62.25,27)" d="M27 218H28V237H27Z" fill="#c0c0c0"/>
<path transform="matrix(.90000006,0,0,.90000006,62.25,27)" d="M27 237H28V257H27Z" fill="#c0c0c0"/>
<path transform="matrix(.90000006,0,0,.90000006,62.25,27)" d="M27 257H28V276H27Z" fill="#c0c0c0"/>
<path transform="matrix(.90000006,0,0,.90000006,62.25,27)" d="M27 276H28V295H27Z" fill="#c0c0c0"/>
<path transform="matrix(.90000006,0,0,.90000006,62.25,27)" d="M27 295H28V315H27Z" fill="#c0c0c0"/>
<path transform="matrix(.90000006,0,0,.90000006,62.25,27)" d="M27 315H28V334H27Z" fill="#c0c0c0"/>
<path transform="matrix(.90000006,0,0,.90000006,62.25,27)" d="M27 334H28V353H27Z" fill="#c0c0c0"/>
<path transform="matrix(.90000006,0,0,.90000006,62.25,27)" d="M27 353H28V373H27Z" fill="#c0c0c0"/>
<path transform="matrix(.90000006,0,0,.90000006,62.25,27)" d="M27 373H28V392H27Z" fill="#c0c0c0"/>
<path transform="matrix(.90000006,0,0,.90000006,62.25,27)" d="M27 392H28V411H27Z" fill="#c0c0c0"/>
<path transform="matrix(.90000006,0,0,.90000006,62.25,27)" d="M27 411H28V431H27Z" fill="#c0c0c0"/>
<path transform="matrix(.90000006,0,0,.90000006,62.25,27)" d="M27 431H28V450H27Z" fill="#c0c0c0"/>
<path transform="matrix(.90000006,0,0,.90000006,62.25,27)" d="M27 450H28V469H27Z" fill="#c0c0c0"/>
<path transform="matrix(.90000006,0,0,.90000006,62.25,27)" d="M27 469H28V489H27Z" fill="#c0c0c0"/>
<path transform="matrix(.90000006,0,0,.90000006,62.25,27)" d="M27 489H28V508H27Z" fill="#c0c0c0"/>
<path transform="matrix(.90000006,0,0,.90000006,62.25,27)" d="M27 508H28V527H27Z" fill="#c0c0c0"/>
<path transform="matrix(.90000006,0,0,.90000006,62.25,27)" d="M27 527H28V547H27Z" fill="#c0c0c0"/>
<path transform="matrix(.90000006,0,0,.90000006,62.25,27)" d="M27 547H28V566H27Z" fill="#c0c0c0"/>
<path transform="matrix(.90000006,0,0,.90000006,62.25,27)" d="M27 566H28V585H27Z" fill="#c0c0c0"/>
<path transform="matrix(.90000006,0,0,.90000006,62.25,27)" d="M27 585H28V605H27Z" fill="#c0c0c0"/>
<path transform="matrix(.90000006,0,0,.90000006,62.25,27)" d="M27 605H28V624H27Z" fill="#c0c0c0"/>
<path transform="matrix(.90000006,0,0,.90000006,62.25,27)" d="M27 624H28V643H27Z" fill="#c0c0c0"/>
<path transform="matrix(.90000006,0,0,.90000006,62.25,27)" d="M27 643H28V662H27Z" fill="#c0c0c0"/>
<path transform="matrix(.90000006,0,0,.90000006,62.25,27)" d="M27 662H28V682H27Z" fill="#c0c0c0"/>
<path transform="matrix(.90000006,0,0,.90000006,62.25,27)" d="M27 682H28V701H27Z" fill="#c0c0c0"/>
<path transform="matrix(.90000006,0,0,.90000006,62.25,27)" d="M27 701H28V720H27Z" fill="#c0c0c0"/>
<path transform="matrix(.90000006,0,0,.90000006,62.25,27)" d="M27 720H28V757H27Z" fill="#c0c0c0"/>
<path transform="matrix(.90000006,0,0,.90000006,62.25,27)" d="M27 757H28V776H27Z" fill="#c0c0c0"/>
<path transform="matrix(.90000006,0,0,.90000006,62.25,27)" d="M27 776H28V796H27Z" fill="#c0c0c0"/>
<path transform="matrix(.90000006,0,0,.90000006,62.25,27)" d="M27 796H28V815H27Z" fill="#c0c0c0"/>
<path transform="matrix(.90000006,0,0,.90000006,62.25,27)" d="M27 815H28V834H27Z" fill="#c0c0c0"/>
<path transform="matrix(.90000006,0,0,.90000006,62.25,27)" d="M27 834H28V854H27Z" fill="#c0c0c0"/>
<path transform="matrix(.90000006,0,0,.90000006,62.25,27)" d="M27 854H28V873H27Z" fill="#c0c0c0"/>
<text xml:space="preserve" transform="matrix(.90000006 0 0 .90000006 62.25 27)" font-size="13.33" font-family="Consolas" font-weight="bold"><tspan y="26" x="0 7.328888 14.657776 21.986664 29.315552 36.64444 43.973329 51.302217">testy.py</tspan></text>
<text fill="#444444" xml:space="preserve" transform="matrix(.90000006 0 0 .90000006 62.25 27)" font-size="13.33" font-family="Consolas"><tspan y="58" x="15.65625">1</tspan></text>
<text fill="#444444" xml:space="preserve" transform="matrix(.90000006 0 0 .90000006 62.25 27)" font-size="13.33" font-family="Consolas" font-weight="bold"><tspan y="58" x="37.328126 44.657014 51.9859 59.31479">from</tspan></text>
<text fill="#444444" xml:space="preserve" transform="matrix(.90000006 0 0 .90000006 62.25 27)" font-size="13.33" font-family="Consolas"><tspan y="58" x="66.65625 73.98514 81.314029 88.642917 95.9718 103.30069 110.62958 117.958469"> turtle </tspan></text>
<text fill="#444444" xml:space="preserve" transform="matrix(.90000006 0 0 .90000006 62.25 27)" font-size="13.33" font-family="Consolas" font-weight="bold"><tspan y="58" x="125.296878 132.62577 139.95465 147.28354 154.61243 161.94132">import</tspan></text>
<text fill="#444444" xml:space="preserve" transform="matrix(.90000006 0 0 .90000006 62.25 27)" font-size="13.33" font-family="Consolas"><tspan y="58" x="169.28125 176.61014 183.93903 191.26792 198.5968 205.92569"> width</tspan></text>
<text fill="#444444" xml:space="preserve" transform="matrix(.90000006 0 0 .90000006 62.25 27)" font-size="13.33" font-family="Consolas"><tspan y="77" x="15.65625">2</tspan></text>
<text fill="#444444" xml:space="preserve" transform="matrix(.90000006 0 0 .90000006 62.25 27)" font-size="13.33" font-family="Consolas" font-weight="bold"><tspan y="77" x="37.328126 44.657014 51.9859 59.31479 66.64368 73.972568">import</tspan></text>
<text fill="#444444" xml:space="preserve" transform="matrix(.90000006 0 0 .90000006 62.25 27)" font-size="13.33" font-family="Consolas"><tspan y="77" x="81.3125 88.64139 95.970279 103.299167"> cv2</tspan></text>
<text fill="#444444" xml:space="preserve" transform="matrix(.90000006 0 0 .90000006 62.25 27)" font-size="13.33" font-family="Consolas"><tspan y="97" x="15.65625">3</tspan></text>
<text fill="#444444" xml:space="preserve" transform="matrix(.90000006 0 0 .90000006 62.25 27)" font-size="13.33" font-family="Consolas" font-weight="bold"><tspan y="97" x="37.328126 44.657014 51.9859 59.31479">from</tspan></text>
<text fill="#444444" xml:space="preserve" transform="matrix(.90000006 0 0 .90000006 62.25 27)" font-size="13.33" font-family="Consolas"><tspan y="97" x="66.65625 73.98514 81.314029 88.642917 95.9718 103.30069 110.62958 117.958469 125.28735 132.61624"> win32gui </tspan></text>
<text fill="#444444" xml:space="preserve" transform="matrix(.90000006 0 0 .90000006 62.25 27)" font-size="13.33" font-family="Consolas" font-weight="bold"><tspan y="97" x="139.95313 147.28202 154.6109 161.93979 169.26868 176.59757">import</tspan></text>
<text fill="#444444" xml:space="preserve" transform="matrix(.90000006 0 0 .90000006 62.25 27)" font-size="13.33" font-family="Consolas"><tspan y="97" x="183.9375 191.26639 198.59528 205.92417 213.25305 220.58194 227.91083 235.23972 242.5686 249.89749 257.22639 264.55528 271.88417 279.21305 286.54194 293.87083 301.1997 308.5286 315.85749 323.18638 330.51527 337.84416 345.17304 352.50193 359.8308 367.1597"> FindWindow, GetWindowRect</tspan></text>
<text fill="#444444" xml:space="preserve" transform="matrix(.90000006 0 0 .90000006 62.25 27)" font-size="13.33" font-family="Consolas"><tspan y="116" x="15.65625">4</tspan></text>
<text fill="#444444" xml:space="preserve" transform="matrix(.90000006 0 0 .90000006 62.25 27)" font-size="13.33" font-family="Consolas" font-weight="bold"><tspan y="116" x="37.328126 44.657014 51.9859 59.31479 66.64368 73.972568">import</tspan></text>
<text fill="#444444" xml:space="preserve" transform="matrix(.90000006 0 0 .90000006 62.25 27)" font-size="13.33" font-family="Consolas"><tspan y="116" x="81.3125 88.64139 95.970279 103.299167 110.62805 117.95694 125.28583"> numpy </tspan></text>
<text fill="#444444" xml:space="preserve" transform="matrix(.90000006 0 0 .90000006 62.25 27)" font-size="13.33" font-family="Consolas" font-weight="bold"><tspan y="116" x="132.625 139.95389">as</tspan></text>
<text fill="#444444" xml:space="preserve" transform="matrix(.90000006 0 0 .90000006 62.25 27)" font-size="13.33" font-family="Consolas"><tspan y="116" x="147.29688 154.62577 161.95465"> np</tspan></text>
<text fill="#444444" xml:space="preserve" transform="matrix(.90000006 0 0 .90000006 62.25 27)" font-size="13.33" font-family="Consolas"><tspan y="135" x="15.65625">5</tspan></text>
<text fill="#444444" xml:space="preserve" transform="matrix(.90000006 0 0 .90000006 62.25 27)" font-size="13.33" font-family="Consolas" font-weight="bold"><tspan y="135" x="37.328126 44.657014 51.9859 59.31479 66.64368 73.972568">import</tspan></text>
<text fill="#444444" xml:space="preserve" transform="matrix(.90000006 0 0 .90000006 62.25 27)" font-size="13.33" font-family="Consolas"><tspan y="135" x="81.3125 88.64139 95.970279 103.299167 110.62805 117.95694 125.28583 132.61472 139.9436 147.27249 154.60138 161.93027 169.25916"> PySimpleGUI </tspan></text>
<text fill="#444444" xml:space="preserve" transform="matrix(.90000006 0 0 .90000006 62.25 27)" font-size="13.33" font-family="Consolas" font-weight="bold"><tspan y="135" x="176.59375 183.92264">as</tspan></text>
<text fill="#444444" xml:space="preserve" transform="matrix(.90000006 0 0 .90000006 62.25 27)" font-size="13.33" font-family="Consolas"><tspan y="135" x="191.26563 198.59452 205.9234"> sg</tspan></text>
<text fill="#444444" xml:space="preserve" transform="matrix(.90000006 0 0 .90000006 62.25 27)" font-size="13.33" font-family="Consolas"><tspan y="155" x="15.65625">6</tspan></text>
<text fill="#444444" xml:space="preserve" transform="matrix(.90000006 0 0 .90000006 62.25 27)" font-size="13.33" font-family="Consolas" font-weight="bold"><tspan y="155" x="37.328126 44.657014 51.9859 59.31479 66.64368">class</tspan></text>
<text fill="#444444" xml:space="preserve" transform="matrix(.90000006 0 0 .90000006 62.25 27)" font-size="13.33" font-family="Consolas"><tspan y="155" x="73.984378"> </tspan></text>
<text fill="#880000" xml:space="preserve" transform="matrix(.90000006 0 0 .90000006 62.25 27)" font-size="13.33" font-family="Consolas" font-weight="bold"><tspan y="155" x="81.328128 88.65701 95.9859 103.31479 110.64368 117.972568 125.30145 132.63034">MousePts</tspan></text>
<text fill="#444444" xml:space="preserve" transform="matrix(.90000006 0 0 .90000006 62.25 27)" font-size="13.33" font-family="Consolas"><tspan y="155" x="139.96875">:</tspan></text>
<text fill="#444444" xml:space="preserve" transform="matrix(.90000006 0 0 .90000006 62.25 27)" font-size="13.33" font-family="Consolas"><tspan y="174" x="15.65625">7</tspan></text>
<text fill="#444444" xml:space="preserve" transform="matrix(.90000006 0 0 .90000006 62.25 27)" font-size="13.33" font-family="Consolas"><tspan y="174" x="37.328126 44.657014 51.9859 59.31479">    </tspan></text>
<text fill="#444444" xml:space="preserve" transform="matrix(.90000006 0 0 .90000006 62.25 27)" font-size="13.33" font-family="Consolas" font-weight="bold"><tspan y="174" x="66.65625 73.98514 81.314029">def</tspan></text>
<text fill="#444444" xml:space="preserve" transform="matrix(.90000006 0 0 .90000006 62.25 27)" font-size="13.33" font-family="Consolas"><tspan y="174" x="88.65625"> </tspan></text>
<text fill="#880000" xml:space="preserve" transform="matrix(.90000006 0 0 .90000006 62.25 27)" font-size="13.33" font-family="Consolas" font-weight="bold"><tspan y="174" x="96 103.32889 110.657779 117.986667 125.31555 132.64444 139.97333 147.30222">__init__</tspan></text>
<text fill="#444444" xml:space="preserve" transform="matrix(.90000006 0 0 .90000006 62.25 27)" font-size="13.33" font-family="Consolas"><tspan y="174" x="154.64063">(</tspan></text>
<text fill="#444444" xml:space="preserve" transform="matrix(.90000006 0 0 .90000006 62.25 27)" font-size="13.33" font-family="Consolas"><tspan y="174" x="161.98438 169.31327 176.64215 183.97104 191.29993 198.62882 205.9577 213.28659 220.61548 227.94437 235.27326 242.60214 249.93103 257.25993 264.5888 271.9177 279.24659 286.57548 293.90437 301.23326 308.56214 315.89103 323.2199 330.5488 337.8777 345.20658 352.53547 359.86436 367.19325 374.52214 381.851 389.1799 396.5088 403.83769 411.16658 418.49546 425.82435 433.15324 440.48213">self,windowname,img1,heightImg,widthImg</tspan></text>
<text fill="#444444" xml:space="preserve" transform="matrix(.90000006 0 0 .90000006 62.25 27)" font-size="13.33" font-family="Consolas"><tspan y="174" x="447.8125 455.1414">):</tspan></text>
<text fill="#444444" xml:space="preserve" transform="matrix(.90000006 0 0 .90000006 62.25 27)" font-size="13.33" font-family="Consolas"><tspan y="193" x="15.65625">8</tspan></text>
<text fill="#444444" xml:space="preserve" transform="matrix(.90000006 0 0 .90000006 62.25 27)" font-size="13.33" font-family="Consolas"><tspan y="193" x="37.328126 44.657014 51.9859 59.31479 66.64368 73.972568 81.30145 88.63034">        </tspan></text>
<text fill="#444444" xml:space="preserve" transform="matrix(.90000006 0 0 .90000006 62.25 27)" font-size="13.33" font-family="Consolas"><tspan y="193" x="95.96875 103.29764 110.626529 117.955417 125.2843 132.61319 139.94208 147.27097 154.59986 161.92874 169.25763 176.58652 183.9154 191.2443 198.57318 205.90207 213.23096 220.55985 227.88874 235.21762 242.54651 249.8754 257.20429 264.53318 271.86207 279.19096 286.51985 293.84873">self.windowname = windowname</tspan></text>
<text fill="#444444" xml:space="preserve" transform="matrix(.90000006 0 0 .90000006 62.25 27)" font-size="13.33" font-family="Consolas"><tspan y="213" x="15.65625">9</tspan></text>
<text fill="#444444" xml:space="preserve" transform="matrix(.90000006 0 0 .90000006 62.25 27)" font-size="13.33" font-family="Consolas"><tspan y="213" x="37.328126 44.657014 51.9859 59.31479 66.64368 73.972568 81.30145 88.63034">        </tspan></text>
<text fill="#444444" xml:space="preserve" transform="matrix(.90000006 0 0 .90000006 62.25 27)" font-size="13.33" font-family="Consolas"><tspan y="213" x="95.96875 103.29764 110.626529 117.955417 125.2843 132.61319 139.94208 147.27097 154.59986 161.92874 169.25763 176.58652 183.9154 191.2443 198.57318 205.90207 213.23096 220.55985 227.88874 235.21762 242.54651 249.8754 257.20429 264.53318">self.img11 = img1.copy()</tspan></text>
<text fill="#444444" xml:space="preserve" transform="matrix(.90000006 0 0 .90000006 62.25 27)" font-size="13.33" font-family="Consolas"><tspan y="232" x="8.328125 15.657013">10</tspan></text>
<text fill="#444444" xml:space="preserve" transform="matrix(.90000006 0 0 .90000006 62.25 27)" font-size="13.33" font-family="Consolas"><tspan y="232" x="37.328126 44.657014 51.9859 59.31479 66.64368 73.972568 81.30145 88.63034">        </tspan></text>
<text fill="#444444" xml:space="preserve" transform="matrix(.90000006 0 0 .90000006 62.25 27)" font-size="13.33" font-family="Consolas"><tspan y="232" x="95.96875 103.29764 110.626529 117.955417 125.2843 132.61319 139.94208 147.27097 154.59986 161.92874 169.25763 176.58652 183.9154 191.2443 198.57318 205.90207 213.23096 220.55985 227.88874 235.21762 242.54651 249.8754 257.20429 264.53318 271.86207 279.19096 286.51985 293.84873 301.1776">self.img1 = self.img11.copy()</tspan></text>
<text fill="#444444" xml:space="preserve" transform="matrix(.90000006 0 0 .90000006 62.25 27)" font-size="13.33" font-family="Consolas"><tspan y="251" x="8.328125 15.657013">11</tspan></text>
<text fill="#444444" xml:space="preserve" transform="matrix(.90000006 0 0 .90000006 62.25 27)" font-size="13.33" font-family="Consolas"><tspan y="251" x="37.328126 44.657014 51.9859 59.31479 66.64368 73.972568 81.30145 88.63034">        </tspan></text>
<text fill="#444444" xml:space="preserve" transform="matrix(.90000006 0 0 .90000006 62.25 27)" font-size="13.33" font-family="Consolas"><tspan y="251" x="95.96875 103.29764 110.626529 117.955417 125.2843 132.61319 139.94208 147.27097 154.59986 161.92874 169.25763 176.58652 183.9154 191.2443 198.57318 205.90207 213.23096 220.55985 227.88874 235.21762 242.54651 249.8754 257.20429 264.53318 271.86207 279.19096 286.51985 293.84873 301.1776 308.5065 315.8354 323.16429 330.49317 337.82206 345.15095 352.47984 359.80873 367.1376 374.4665 381.79539 389.12428 396.45317 403.78205 411.11094 418.43983">cv2.namedWindow(windowname,cv2.WINDOW_NORMAL)</tspan></text>
<text fill="#444444" xml:space="preserve" transform="matrix(.90000006 0 0 .90000006 62.25 27)" font-size="13.33" font-family="Consolas"><tspan y="271" x="8.328125 15.657013">12</tspan></text>
<text fill="#444444" xml:space="preserve" transform="matrix(.90000006 0 0 .90000006 62.25 27)" font-size="13.33" font-family="Consolas"><tspan y="271" x="37.328126 44.657014 51.9859 59.31479 66.64368 73.972568 81.30145 88.63034">        </tspan></text>
<text fill="#444444" xml:space="preserve" transform="matrix(.90000006 0 0 .90000006 62.25 27)" font-size="13.33" font-family="Consolas"><tspan y="271" x="95.96875 103.29764 110.626529 117.955417 125.2843 132.61319 139.94208 147.27097 154.59986 161.92874 169.25763 176.58652 183.9154 191.2443 198.57318 205.90207 213.23096 220.55985 227.88874 235.21762 242.54651 249.8754 257.20429 264.53318 271.86207 279.19096 286.51985 293.84873 301.1776 308.5065 315.8354 323.16429 330.49317 337.82206 345.15095 352.47984 359.80873 367.1376 374.4665 381.79539 389.12428 396.45317 403.78205 411.11094 418.43983 425.7687 433.0976 440.42649 447.75538 455.08427 462.41316">cv2.resizeWindow(windowname, (widthImg, heightImg))</tspan></text>
<text fill="#444444" xml:space="preserve" transform="matrix(.90000006 0 0 .90000006 62.25 27)" font-size="13.33" font-family="Consolas"><tspan y="290" x="8.328125 15.657013">13</tspan></text>
<text fill="#444444" xml:space="preserve" transform="matrix(.90000006 0 0 .90000006 62.25 27)" font-size="13.33" font-family="Consolas"><tspan y="290" x="37.328126 44.657014 51.9859 59.31479 66.64368 73.972568 81.30145 88.63034">        </tspan></text>
<text fill="#444444" xml:space="preserve" transform="matrix(.90000006 0 0 .90000006 62.25 27)" font-size="13.33" font-family="Consolas"><tspan y="290" x="95.96875 103.29764 110.626529 117.955417 125.2843 132.61319 139.94208 147.27097 154.59986 161.92874 169.25763 176.58652 183.9154 191.2443 198.57318 205.90207 213.23096 220.55985 227.88874 235.21762 242.54651 249.8754 257.20429 264.53318 271.86207 279.19096 286.51985">cv2.imshow(windowname,img1)</tspan></text>
<text fill="#444444" xml:space="preserve" transform="matrix(.90000006 0 0 .90000006 62.25 27)" font-size="13.33" font-family="Consolas"><tspan y="309" x="8.328125 15.657013">14</tspan></text>
<text fill="#444444" xml:space="preserve" transform="matrix(.90000006 0 0 .90000006 62.25 27)" font-size="13.33" font-family="Consolas"><tspan y="309" x="37.328126 44.657014 51.9859 59.31479 66.64368 73.972568 81.30145 88.63034">        </tspan></text>
<text fill="#444444" xml:space="preserve" transform="matrix(.90000006 0 0 .90000006 62.25 27)" font-size="13.33" font-family="Consolas"><tspan y="309" x="95.96875 103.29764 110.626529 117.955417 125.2843 132.61319 139.94208 147.27097 154.59986 161.92874 169.25763 176.58652 183.9154 191.2443 198.57318 205.90207 213.23096">self.curr_pt = []</tspan></text>
<text fill="#444444" xml:space="preserve" transform="matrix(.90000006 0 0 .90000006 62.25 27)" font-size="13.33" font-family="Consolas"><tspan y="329" x="8.328125 15.657013">15</tspan></text>
<text fill="#444444" xml:space="preserve" transform="matrix(.90000006 0 0 .90000006 62.25 27)" font-size="13.33" font-family="Consolas"><tspan y="329" x="37.328126 44.657014 51.9859 59.31479 66.64368 73.972568 81.30145 88.63034">        </tspan></text>
<text fill="#444444" xml:space="preserve" transform="matrix(.90000006 0 0 .90000006 62.25 27)" font-size="13.33" font-family="Consolas"><tspan y="329" x="95.96875 103.29764 110.626529 117.955417 125.2843 132.61319 139.94208 147.27097 154.59986 161.92874 169.25763 176.58652 183.9154 191.2443 198.57318 205.90207 213.23096">self.point   = []</tspan></text>
<text fill="#444444" xml:space="preserve" transform="matrix(.90000006 0 0 .90000006 62.25 27)" font-size="13.33" font-family="Consolas"><tspan y="348" x="8.328125 15.657013">16</tspan></text>
<text fill="#444444" xml:space="preserve" transform="matrix(.90000006 0 0 .90000006 62.25 27)" font-size="13.33" font-family="Consolas"><tspan y="348" x="37.328126 44.657014 51.9859 59.31479">    </tspan></text>
<text fill="#444444" xml:space="preserve" transform="matrix(.90000006 0 0 .90000006 62.25 27)" font-size="13.33" font-family="Consolas" font-weight="bold"><tspan y="348" x="66.65625 73.98514 81.314029">def</tspan></text>
<text fill="#444444" xml:space="preserve" transform="matrix(.90000006 0 0 .90000006 62.25 27)" font-size="13.33" font-family="Consolas"><tspan y="348" x="88.65625"> </tspan></text>
<text fill="#880000" xml:space="preserve" transform="matrix(.90000006 0 0 .90000006 62.25 27)" font-size="13.33" font-family="Consolas" font-weight="bold"><tspan y="348" x="96 103.32889 110.657779 117.986667 125.31555 132.64444 139.97333 147.30222 154.6311 161.95999 169.28888 176.61777">select_point</tspan></text>
<text fill="#444444" xml:space="preserve" transform="matrix(.90000006 0 0 .90000006 62.25 27)" font-size="13.33" font-family="Consolas"><tspan y="348" x="183.95313">(</tspan></text>
<text fill="#444444" xml:space="preserve" transform="matrix(.90000006 0 0 .90000006 62.25 27)" font-size="13.33" font-family="Consolas"><tspan y="348" x="191.29688 198.62577 205.95465 213.28354 220.61243 227.94132 235.2702 242.59909 249.92798 257.25688 264.58576 271.91465 279.24354 286.57243 293.9013 301.2302 308.55909 315.88798 323.21687 330.54576 337.87464 345.20353 352.5324 359.8613 367.1902 374.51908">self,event,x,y,flags,param</tspan></text>
<text fill="#444444" xml:space="preserve" transform="matrix(.90000006 0 0 .90000006 62.25 27)" font-size="13.33" font-family="Consolas"><tspan y="348" x="381.85939 389.18827">):</tspan></text>
<text fill="#444444" xml:space="preserve" transform="matrix(.90000006 0 0 .90000006 62.25 27)" font-size="13.33" font-family="Consolas"><tspan y="367" x="8.328125 15.657013">17</tspan></text>
<text fill="#444444" xml:space="preserve" transform="matrix(.90000006 0 0 .90000006 62.25 27)" font-size="13.33" font-family="Consolas"><tspan y="367" x="37.328126 44.657014 51.9859 59.31479 66.64368 73.972568 81.30145 88.63034">        </tspan></text>
<text fill="#444444" xml:space="preserve" transform="matrix(.90000006 0 0 .90000006 62.25 27)" font-size="13.33" font-family="Consolas" font-weight="bold"><tspan y="367" x="95.96875 103.29764">if</tspan></text>
<text fill="#444444" xml:space="preserve" transform="matrix(.90000006 0 0 .90000006 62.25 27)" font-size="13.33" font-family="Consolas"><tspan y="367" x="110.640628 117.96951 125.2984 132.62729 139.95618 147.28507 154.61396 161.94284 169.27173 176.60062 183.9295 191.25839 198.58728 205.91617 213.24506 220.57395 227.90283 235.23172 242.56061 249.8895 257.21839 264.54728 271.87617 279.20506 286.53395 293.86283 301.1917 308.5206 315.8495 323.17839 330.50727 337.83616"> event == cv2.EVENT_LBUTTONDOWN:</tspan></text>
<text fill="#444444" xml:space="preserve" transform="matrix(.90000006 0 0 .90000006 62.25 27)" font-size="13.33" font-family="Consolas"><tspan y="387" x="8.328125 15.657013">18</tspan></text>
<text fill="#444444" xml:space="preserve" transform="matrix(.90000006 0 0 .90000006 62.25 27)" font-size="13.33" font-family="Consolas"><tspan y="387" x="37.328126 44.657014 51.9859 59.31479 66.64368 73.972568 81.30145 88.63034 95.95923 103.28812 110.617008 117.94589">            </tspan></text>
<text fill="#444444" xml:space="preserve" transform="matrix(.90000006 0 0 .90000006 62.25 27)" font-size="13.33" font-family="Consolas"><tspan y="387" x="125.28125 132.61014 139.93903 147.26792 154.5968 161.92569 169.25458 176.58347 183.91236 191.24124 198.57013 205.89902 213.2279 220.5568 227.88568 235.21457 242.54346 249.87235 257.20124 264.53013 271.859 279.1879 286.51679 293.84568">self.point.append([x,y])</tspan></text>
<text fill="#444444" xml:space="preserve" transform="matrix(.90000006 0 0 .90000006 62.25 27)" font-size="13.33" font-family="Consolas"><tspan y="406" x="8.328125 15.657013">19</tspan></text>
<text fill="#444444" xml:space="preserve" transform="matrix(.90000006 0 0 .90000006 62.25 27)" font-size="13.33" font-family="Consolas"><tspan y="406" x="37.328126 44.657014 51.9859 59.31479 66.64368 73.972568 81.30145 88.63034 95.95923 103.28812 110.617008 117.94589">            </tspan></text>
<text fill="#444444" xml:space="preserve" transform="matrix(.90000006 0 0 .90000006 62.25 27)" font-size="13.33" font-family="Consolas"><tspan y="406" x="125.28125 132.61014 139.93903 147.26792 154.5968 161.92569 169.25458 176.58347 183.91236 191.24124 198.57013 205.89902 213.2279 220.5568 227.88568 235.21457 242.54346 249.87235 257.20124 264.53013 271.859 279.1879 286.51679 293.84568 301.17457 308.50346 315.83235">cv2.circle(self.img1,(x,y),</tspan></text>
<text fill="#880000" xml:space="preserve" transform="matrix(.90000006 0 0 .90000006 62.25 27)" font-size="13.33" font-family="Consolas"><tspan y="406" x="323.17189 330.50077">10</tspan></text>
<text fill="#444444" xml:space="preserve" transform="matrix(.90000006 0 0 .90000006 62.25 27)" font-size="13.33" font-family="Consolas"><tspan y="406" x="337.84376 345.17265">,(</tspan></text>
<text fill="#880000" xml:space="preserve" transform="matrix(.90000006 0 0 .90000006 62.25 27)" font-size="13.33" font-family="Consolas"><tspan y="406" x="352.51564">0</tspan></text>
<text fill="#444444" xml:space="preserve" transform="matrix(.90000006 0 0 .90000006 62.25 27)" font-size="13.33" font-family="Consolas"><tspan y="406" x="359.85939">,</tspan></text>
<text fill="#880000" xml:space="preserve" transform="matrix(.90000006 0 0 .90000006 62.25 27)" font-size="13.33" font-family="Consolas"><tspan y="406" x="367.20314">0</tspan></text>
<text fill="#444444" xml:space="preserve" transform="matrix(.90000006 0 0 .90000006 62.25 27)" font-size="13.33" font-family="Consolas"><tspan y="406" x="374.54689">,</tspan></text>
<text fill="#880000" xml:space="preserve" transform="matrix(.90000006 0 0 .90000006 62.25 27)" font-size="13.33" font-family="Consolas"><tspan y="406" x="381.89064 389.2195 396.5484">255</tspan></text>
<text fill="#444444" xml:space="preserve" transform="matrix(.90000006 0 0 .90000006 62.25 27)" font-size="13.33" font-family="Consolas"><tspan y="406" x="403.89064 411.2195 418.5484">),-</tspan></text>
<text fill="#880000" xml:space="preserve" transform="matrix(.90000006 0 0 .90000006 62.25 27)" font-size="13.33" font-family="Consolas"><tspan y="406" x="425.89064">1</tspan></text>
<text fill="#444444" xml:space="preserve" transform="matrix(.90000006 0 0 .90000006 62.25 27)" font-size="13.33" font-family="Consolas"><tspan y="406" x="433.23439">)</tspan></text>
<text fill="#444444" xml:space="preserve" transform="matrix(.90000006 0 0 .90000006 62.25 27)" font-size="13.33" font-family="Consolas"><tspan y="425" x="8.328125 15.657013">20</tspan></text>
<text fill="#444444" xml:space="preserve" transform="matrix(.90000006 0 0 .90000006 62.25 27)" font-size="13.33" font-family="Consolas"><tspan y="425" x="37.328126 44.657014 51.9859 59.31479 66.64368 73.972568 81.30145 88.63034">        </tspan></text>
<text fill="#444444" xml:space="preserve" transform="matrix(.90000006 0 0 .90000006 62.25 27)" font-size="13.33" font-family="Consolas" font-weight="bold"><tspan y="425" x="95.96875 103.29764 110.626529 117.955417">elif</tspan></text>
<text fill="#444444" xml:space="preserve" transform="matrix(.90000006 0 0 .90000006 62.25 27)" font-size="13.33" font-family="Consolas"><tspan y="425" x="125.296878 132.62577 139.95465 147.28354 154.61243 161.94132 169.2702 176.59909 183.92798 191.25687 198.58576 205.91464 213.24353 220.57242 227.9013 235.2302 242.55908 249.88797 257.21687 264.54576 271.87464 279.20353 286.5324 293.8613 301.1902 308.51908 315.84797 323.17686 330.50575 337.83464"> event == cv2.EVENT_MOUSEMOVE:</tspan></text>
<text fill="#444444" xml:space="preserve" transform="matrix(.90000006 0 0 .90000006 62.25 27)" font-size="13.33" font-family="Consolas"><tspan y="445" x="8.328125 15.657013">21</tspan></text>
<text fill="#444444" xml:space="preserve" transform="matrix(.90000006 0 0 .90000006 62.25 27)" font-size="13.33" font-family="Consolas"><tspan y="445" x="37.328126 44.657014 51.9859 59.31479 66.64368 73.972568 81.30145 88.63034 95.95923 103.28812 110.617008 117.94589">            </tspan></text>
<text fill="#444444" xml:space="preserve" transform="matrix(.90000006 0 0 .90000006 62.25 27)" font-size="13.33" font-family="Consolas"><tspan y="445" x="125.28125 132.61014 139.93903 147.26792 154.5968 161.92569 169.25458 176.58347 183.91236 191.24124 198.57013 205.89902 213.2279 220.5568 227.88568 235.21457 242.54346 249.87235 257.20124 264.53013">self.curr_pt = [x,y]</tspan></text>
<text fill="#444444" xml:space="preserve" transform="matrix(.90000006 0 0 .90000006 62.25 27)" font-size="13.33" font-family="Consolas"><tspan y="464" x="8.328125 15.657013">22</tspan></text>
<text fill="#444444" xml:space="preserve" transform="matrix(.90000006 0 0 .90000006 62.25 27)" font-size="13.33" font-family="Consolas"><tspan y="464" x="37.328126 44.657014 51.9859 59.31479">    </tspan></text>
<text fill="#444444" xml:space="preserve" transform="matrix(.90000006 0 0 .90000006 62.25 27)" font-size="13.33" font-family="Consolas" font-weight="bold"><tspan y="464" x="66.65625 73.98514 81.314029">def</tspan></text>
<text fill="#444444" xml:space="preserve" transform="matrix(.90000006 0 0 .90000006 62.25 27)" font-size="13.33" font-family="Consolas"><tspan y="464" x="88.65625"> </tspan></text>
<text fill="#880000" xml:space="preserve" transform="matrix(.90000006 0 0 .90000006 62.25 27)" font-size="13.33" font-family="Consolas" font-weight="bold"><tspan y="464" x="96 103.32889 110.657779 117.986667 125.31555">getpt</tspan></text>
<text fill="#444444" xml:space="preserve" transform="matrix(.90000006 0 0 .90000006 62.25 27)" font-size="13.33" font-family="Consolas"><tspan y="464" x="132.65625">(</tspan></text>
<text fill="#444444" xml:space="preserve" transform="matrix(.90000006 0 0 .90000006 62.25 27)" font-size="13.33" font-family="Consolas"><tspan y="464" x="140 147.32889 154.65778 161.98667 169.31555 176.64444 183.97333 191.30222 198.6311 205.95999 213.28888">self,count=</tspan></text>
<text fill="#880000" xml:space="preserve" transform="matrix(.90000006 0 0 .90000006 62.25 27)" font-size="13.33" font-family="Consolas"><tspan y="464" x="220.625">1</tspan></text>
<text fill="#444444" xml:space="preserve" transform="matrix(.90000006 0 0 .90000006 62.25 27)" font-size="13.33" font-family="Consolas"><tspan y="464" x="227.96875 235.29764 242.62653 249.95542 257.2843 264.6132">,img1=</tspan></text>
<text fill="#669955" xml:space="preserve" transform="matrix(.90000006 0 0 .90000006 62.25 27)" font-size="13.33" font-family="Consolas"><tspan y="464" x="271.95314 279.282 286.6109 293.9398">None</tspan></text>
<text fill="#444444" xml:space="preserve" transform="matrix(.90000006 0 0 .90000006 62.25 27)" font-size="13.33" font-family="Consolas"><tspan y="464" x="301.28126 308.61015">):</tspan></text>
<text fill="#444444" xml:space="preserve" transform="matrix(.90000006 0 0 .90000006 62.25 27)" font-size="13.33" font-family="Consolas"><tspan y="483" x="8.328125 15.657013">23</tspan></text>
<text fill="#444444" xml:space="preserve" transform="matrix(.90000006 0 0 .90000006 62.25 27)" font-size="13.33" font-family="Consolas"><tspan y="483" x="37.328126 44.657014 51.9859 59.31479 66.64368 73.972568 81.30145 88.63034">        </tspan></text>
<text fill="#444444" xml:space="preserve" transform="matrix(.90000006 0 0 .90000006 62.25 27)" font-size="13.33" font-family="Consolas" font-weight="bold"><tspan y="483" x="95.96875 103.29764">if</tspan></text>
<text fill="#444444" xml:space="preserve" transform="matrix(.90000006 0 0 .90000006 62.25 27)" font-size="13.33" font-family="Consolas"><tspan y="483" x="110.640628 117.96951 125.2984 132.62729 139.95618 147.28507"> img1 </tspan></text>
<text fill="#444444" xml:space="preserve" transform="matrix(.90000006 0 0 .90000006 62.25 27)" font-size="13.33" font-family="Consolas" font-weight="bold"><tspan y="483" x="154.625 161.95389">is</tspan></text>
<text fill="#444444" xml:space="preserve" transform="matrix(.90000006 0 0 .90000006 62.25 27)" font-size="13.33" font-family="Consolas"><tspan y="483" x="169.29688"> </tspan></text>
<text fill="#444444" xml:space="preserve" transform="matrix(.90000006 0 0 .90000006 62.25 27)" font-size="13.33" font-family="Consolas" font-weight="bold"><tspan y="483" x="176.64063 183.96952 191.2984">not</tspan></text>
<text fill="#444444" xml:space="preserve" transform="matrix(.90000006 0 0 .90000006 62.25 27)" font-size="13.33" font-family="Consolas"><tspan y="483" x="198.64063"> </tspan></text>
<text fill="#669955" xml:space="preserve" transform="matrix(.90000006 0 0 .90000006 62.25 27)" font-size="13.33" font-family="Consolas"><tspan y="483" x="205.98438 213.31327 220.64215 227.97104">None</tspan></text>
<text fill="#444444" xml:space="preserve" transform="matrix(.90000006 0 0 .90000006 62.25 27)" font-size="13.33" font-family="Consolas"><tspan y="483" x="235.3125">:</tspan></text>
<text fill="#444444" xml:space="preserve" transform="matrix(.90000006 0 0 .90000006 62.25 27)" font-size="13.33" font-family="Consolas"><tspan y="503" x="8.328125 15.657013">24</tspan></text>
<text fill="#444444" xml:space="preserve" transform="matrix(.90000006 0 0 .90000006 62.25 27)" font-size="13.33" font-family="Consolas"><tspan y="503" x="37.328126 44.657014 51.9859 59.31479 66.64368 73.972568 81.30145 88.63034 95.95923 103.28812 110.617008 117.94589">            </tspan></text>
<text fill="#444444" xml:space="preserve" transform="matrix(.90000006 0 0 .90000006 62.25 27)" font-size="13.33" font-family="Consolas"><tspan y="503" x="125.28125 132.61014 139.93903 147.26792 154.5968 161.92569 169.25458 176.58347 183.91236 191.24124 198.57013 205.89902 213.2279 220.5568 227.88568 235.21457">self.img1 = img1</tspan></text>
<text fill="#444444" xml:space="preserve" transform="matrix(.90000006 0 0 .90000006 62.25 27)" font-size="13.33" font-family="Consolas"><tspan y="522" x="8.328125 15.657013">25</tspan></text>
<text fill="#444444" xml:space="preserve" transform="matrix(.90000006 0 0 .90000006 62.25 27)" font-size="13.33" font-family="Consolas"><tspan y="522" x="37.328126 44.657014 51.9859 59.31479 66.64368 73.972568 81.30145 88.63034">        </tspan></text>
<text fill="#444444" xml:space="preserve" transform="matrix(.90000006 0 0 .90000006 62.25 27)" font-size="13.33" font-family="Consolas" font-weight="bold"><tspan y="522" x="95.96875 103.29764 110.626529 117.955417">else</tspan></text>
<text fill="#444444" xml:space="preserve" transform="matrix(.90000006 0 0 .90000006 62.25 27)" font-size="13.33" font-family="Consolas"><tspan y="522" x="125.296878">:</tspan></text>
<text fill="#444444" xml:space="preserve" transform="matrix(.90000006 0 0 .90000006 62.25 27)" font-size="13.33" font-family="Consolas"><tspan y="541" x="8.328125 15.657013">26</tspan></text>
<text fill="#444444" xml:space="preserve" transform="matrix(.90000006 0 0 .90000006 62.25 27)" font-size="13.33" font-family="Consolas"><tspan y="541" x="37.328126 44.657014 51.9859 59.31479 66.64368 73.972568 81.30145 88.63034 95.95923 103.28812 110.617008 117.94589">            </tspan></text>
<text fill="#444444" xml:space="preserve" transform="matrix(.90000006 0 0 .90000006 62.25 27)" font-size="13.33" font-family="Consolas"><tspan y="541" x="125.28125 132.61014 139.93903 147.26792 154.5968 161.92569 169.25458 176.58347 183.91236 191.24124 198.57013 205.89902 213.2279 220.5568 227.88568 235.21457 242.54346 249.87235 257.20124 264.53013 271.859 279.1879 286.51679 293.84568 301.17457 308.50346 315.83235 323.16123 330.4901">self.img1 = self.img11.copy()</tspan></text>
<text fill="#444444" xml:space="preserve" transform="matrix(.90000006 0 0 .90000006 62.25 27)" font-size="13.33" font-family="Consolas"><tspan y="561" x="8.328125 15.657013">27</tspan></text>
<text fill="#444444" xml:space="preserve" transform="matrix(.90000006 0 0 .90000006 62.25 27)" font-size="13.33" font-family="Consolas"><tspan y="561" x="37.328126 44.657014 51.9859 59.31479 66.64368 73.972568 81.30145 88.63034">        </tspan></text>
<text fill="#444444" xml:space="preserve" transform="matrix(.90000006 0 0 .90000006 62.25 27)" font-size="13.33" font-family="Consolas"><tspan y="561" x="95.96875 103.29764 110.626529 117.955417 125.2843 132.61319 139.94208 147.27097 154.59986 161.92874 169.25763 176.58652 183.9154 191.2443 198.57318 205.90207 213.23096 220.55985 227.88874 235.21762 242.54651 249.8754 257.20429 264.53318 271.86207 279.19096 286.51985 293.84873 301.1776 308.5065 315.8354 323.16429 330.49317 337.82206 345.15095 352.47984 359.80873 367.1376 374.4665 381.79539 389.12428 396.45317 403.78205 411.11094 418.43983 425.7687 433.0976 440.42649 447.75538 455.08427">cv2.namedWindow(self.windowname,cv2.WINDOW_NORMAL)</tspan></text>
<text fill="#444444" xml:space="preserve" transform="matrix(.90000006 0 0 .90000006 62.25 27)" font-size="13.33" font-family="Consolas"><tspan y="580" x="8.328125 15.657013">28</tspan></text>
<text fill="#444444" xml:space="preserve" transform="matrix(.90000006 0 0 .90000006 62.25 27)" font-size="13.33" font-family="Consolas"><tspan y="580" x="37.328126 44.657014 51.9859 59.31479 66.64368 73.972568 81.30145 88.63034">        </tspan></text>
<text fill="#444444" xml:space="preserve" transform="matrix(.90000006 0 0 .90000006 62.25 27)" font-size="13.33" font-family="Consolas"><tspan y="580" x="95.96875 103.29764 110.626529 117.955417 125.2843 132.61319 139.94208 147.27097 154.59986 161.92874 169.25763 176.58652 183.9154 191.2443 198.57318 205.90207 213.23096 220.55985 227.88874 235.21762 242.54651 249.8754 257.20429 264.53318 271.86207 279.19096 286.51985 293.84873 301.1776 308.5065 315.8354 323.16429 330.49317 337.82206 345.15095 352.47984 359.80873">cv2.imshow(self.windowname,self.img1)</tspan></text>
<text fill="#444444" xml:space="preserve" transform="matrix(.90000006 0 0 .90000006 62.25 27)" font-size="13.33" font-family="Consolas"><tspan y="599" x="8.328125 15.657013">29</tspan></text>
<text fill="#444444" xml:space="preserve" transform="matrix(.90000006 0 0 .90000006 62.25 27)" font-size="13.33" font-family="Consolas"><tspan y="599" x="37.328126 44.657014 51.9859 59.31479 66.64368 73.972568 81.30145 88.63034">        </tspan></text>
<text fill="#444444" xml:space="preserve" transform="matrix(.90000006 0 0 .90000006 62.25 27)" font-size="13.33" font-family="Consolas"><tspan y="599" x="95.96875 103.29764 110.626529 117.955417 125.2843 132.61319 139.94208 147.27097 154.59986 161.92874 169.25763 176.58652 183.9154 191.2443 198.57318 205.90207 213.23096 220.55985 227.88874 235.21762 242.54651 249.8754 257.20429 264.53318 271.86207 279.19096 286.51985 293.84873 301.1776 308.5065 315.8354 323.16429 330.49317 337.82206 345.15095 352.47984 359.80873 367.1376 374.4665 381.79539 389.12428 396.45317 403.78205 411.11094 418.43983 425.7687 433.0976 440.42649 447.75538 455.08427 462.41316 469.74205 477.07093 484.3998 491.7287">cv2.setMouseCallback(self.windowname,self.select_point)</tspan></text>
<text fill="#444444" xml:space="preserve" transform="matrix(.90000006 0 0 .90000006 62.25 27)" font-size="13.33" font-family="Consolas"><tspan y="619" x="8.328125 15.657013">30</tspan></text>
<text fill="#444444" xml:space="preserve" transform="matrix(.90000006 0 0 .90000006 62.25 27)" font-size="13.33" font-family="Consolas"><tspan y="619" x="37.328126 44.657014 51.9859 59.31479 66.64368 73.972568 81.30145 88.63034">        </tspan></text>
<text fill="#444444" xml:space="preserve" transform="matrix(.90000006 0 0 .90000006 62.25 27)" font-size="13.33" font-family="Consolas"><tspan y="619" x="95.96875 103.29764 110.626529 117.955417 125.2843 132.61319 139.94208 147.27097 154.59986 161.92874 169.25763 176.58652 183.9154 191.2443 198.57318">self.point = []</tspan></text>
<text fill="#444444" xml:space="preserve" transform="matrix(.90000006 0 0 .90000006 62.25 27)" font-size="13.33" font-family="Consolas"><tspan y="638" x="8.328125 15.657013">31</tspan></text>
<text fill="#444444" xml:space="preserve" transform="matrix(.90000006 0 0 .90000006 62.25 27)" font-size="13.33" font-family="Consolas"><tspan y="638" x="37.328126 44.657014 51.9859 59.31479 66.64368 73.972568 81.30145 88.63034">        </tspan></text>
<text fill="#444444" xml:space="preserve" transform="matrix(.90000006 0 0 .90000006 62.25 27)" font-size="13.33" font-family="Consolas" font-weight="bold"><tspan y="638" x="95.96875 103.29764 110.626529 117.955417 125.2843">while</tspan></text>
<text fill="#444444" xml:space="preserve" transform="matrix(.90000006 0 0 .90000006 62.25 27)" font-size="13.33" font-family="Consolas"><tspan y="638" x="132.625">(</tspan></text>
<text fill="#880000" xml:space="preserve" transform="matrix(.90000006 0 0 .90000006 62.25 27)" font-size="13.33" font-family="Consolas"><tspan y="638" x="139.96875">1</tspan></text>
<text fill="#444444" xml:space="preserve" transform="matrix(.90000006 0 0 .90000006 62.25 27)" font-size="13.33" font-family="Consolas"><tspan y="638" x="147.3125 154.64139">):</tspan></text>
<text fill="#444444" xml:space="preserve" transform="matrix(.90000006 0 0 .90000006 62.25 27)" font-size="13.33" font-family="Consolas"><tspan y="657" x="8.328125 15.657013">32</tspan></text>
<text fill="#444444" xml:space="preserve" transform="matrix(.90000006 0 0 .90000006 62.25 27)" font-size="13.33" font-family="Consolas"><tspan y="657" x="37.328126 44.657014 51.9859 59.31479 66.64368 73.972568 81.30145 88.63034 95.95923 103.28812 110.617008 117.94589">            </tspan></text>
<text fill="#444444" xml:space="preserve" transform="matrix(.90000006 0 0 .90000006 62.25 27)" font-size="13.33" font-family="Consolas"><tspan y="657" x="125.28125 132.61014 139.93903 147.26792 154.5968 161.92569 169.25458 176.58347 183.91236 191.24124 198.57013 205.89902 213.2279 220.5568 227.88568 235.21457 242.54346 249.87235 257.20124 264.53013 271.859 279.1879 286.51679 293.84568 301.17457 308.50346 315.83235 323.16123 330.4901 337.819 345.1479 352.47679 359.80567 367.13456 374.46345 381.79234 389.12123">cv2.imshow(self.windowname,self.img1)</tspan></text>
<text fill="#444444" xml:space="preserve" transform="matrix(.90000006 0 0 .90000006 62.25 27)" font-size="13.33" font-family="Consolas"><tspan y="676" x="8.328125 15.657013">33</tspan></text>
<text fill="#444444" xml:space="preserve" transform="matrix(.90000006 0 0 .90000006 62.25 27)" font-size="13.33" font-family="Consolas"><tspan y="676" x="37.328126 44.657014 51.9859 59.31479 66.64368 73.972568 81.30145 88.63034 95.95923 103.28812 110.617008 117.94589">            </tspan></text>
<text fill="#444444" xml:space="preserve" transform="matrix(.90000006 0 0 .90000006 62.25 27)" font-size="13.33" font-family="Consolas"><tspan y="676" x="125.28125 132.61014 139.93903 147.26792 154.5968 161.92569 169.25458 176.58347 183.91236 191.24124 198.57013 205.89902 213.2279 220.5568 227.88568 235.21457">k = cv2.waitKey(</tspan></text>
<text fill="#880000" xml:space="preserve" transform="matrix(.90000006 0 0 .90000006 62.25 27)" font-size="13.33" font-family="Consolas"><tspan y="676" x="242.54688 249.87577">20</tspan></text>
<text fill="#444444" xml:space="preserve" transform="matrix(.90000006 0 0 .90000006 62.25 27)" font-size="13.33" font-family="Consolas"><tspan y="676" x="257.21876 264.54765 271.87654 279.2054">) &#x0026; </tspan></text>
<text fill="#880000" xml:space="preserve" transform="matrix(.90000006 0 0 .90000006 62.25 27)" font-size="13.33" font-family="Consolas"><tspan y="676" x="286.54689 293.87577 301.20466 308.53355">0xFF</tspan></text>
<text fill="#444444" xml:space="preserve" transform="matrix(.90000006 0 0 .90000006 62.25 27)" font-size="13.33" font-family="Consolas"><tspan y="696" x="8.328125 15.657013">34</tspan></text>
<text fill="#444444" xml:space="preserve" transform="matrix(.90000006 0 0 .90000006 62.25 27)" font-size="13.33" font-family="Consolas"><tspan y="696" x="37.328126 44.657014 51.9859 59.31479 66.64368 73.972568 81.30145 88.63034 95.95923 103.28812 110.617008 117.94589">            </tspan></text>
<text fill="#444444" xml:space="preserve" transform="matrix(.90000006 0 0 .90000006 62.25 27)" font-size="13.33" font-family="Consolas" font-weight="bold"><tspan y="696" x="125.28125 132.61014">if</tspan></text>
<text fill="#444444" xml:space="preserve" transform="matrix(.90000006 0 0 .90000006 62.25 27)" font-size="13.33" font-family="Consolas"><tspan y="696" x="139.95313 147.28202 154.6109 161.93979 169.26868 176.59757"> k == </tspan></text>
<text fill="#880000" xml:space="preserve" transform="matrix(.90000006 0 0 .90000006 62.25 27)" font-size="13.33" font-family="Consolas"><tspan y="696" x="183.9375 191.26639">27</tspan></text>
<text fill="#444444" xml:space="preserve" transform="matrix(.90000006 0 0 .90000006 62.25 27)" font-size="13.33" font-family="Consolas"><tspan y="696" x="198.60938"> </tspan></text>
<text fill="#444444" xml:space="preserve" transform="matrix(.90000006 0 0 .90000006 62.25 27)" font-size="13.33" font-family="Consolas" font-weight="bold"><tspan y="696" x="205.95313 213.28202">or</tspan></text>
<text fill="#444444" xml:space="preserve" transform="matrix(.90000006 0 0 .90000006 62.25 27)" font-size="13.33" font-family="Consolas"><tspan y="696" x="220.625"> </tspan></text>
<text fill="#397300" xml:space="preserve" transform="matrix(.90000006 0 0 .90000006 62.25 27)" font-size="13.33" font-family="Consolas"><tspan y="696" x="227.96875 235.29764 242.62653">len</tspan></text>
<text fill="#444444" xml:space="preserve" transform="matrix(.90000006 0 0 .90000006 62.25 27)" font-size="13.33" font-family="Consolas"><tspan y="696" x="249.96875 257.29765 264.62654 271.9554 279.2843 286.6132 293.94209 301.27098 308.59986 315.92875 323.25764 330.58653 337.9154 345.2443 352.57319 359.90208 367.23097 374.55986 381.88874 389.21763">(self.point)&#x003e;=count:</tspan></text>
<text fill="#444444" xml:space="preserve" transform="matrix(.90000006 0 0 .90000006 62.25 27)" font-size="13.33" font-family="Consolas"><tspan y="715" x="8.328125 15.657013">35</tspan></text>
<text fill="#444444" xml:space="preserve" transform="matrix(.90000006 0 0 .90000006 62.25 27)" font-size="13.33" font-family="Consolas"><tspan y="715" x="37.328126 44.657014 51.9859 59.31479 66.64368 73.972568 81.30145 88.63034 95.95923 103.28812 110.617008 117.94589 125.27478 132.60367 139.93256 147.26145">                </tspan></text>
<text fill="#444444" xml:space="preserve" transform="matrix(.90000006 0 0 .90000006 62.25 27)" font-size="13.33" font-family="Consolas" font-weight="bold"><tspan y="715" x="154.59375 161.92264 169.25153 176.58042 183.9093">break</tspan></text>
<text fill="#444444" xml:space="preserve" transform="matrix(.90000006 0 0 .90000006 62.25 27)" font-size="13.33" font-family="Consolas"><tspan y="734" x="8.328125 15.657013">36</tspan></text>
<text fill="#444444" xml:space="preserve" transform="matrix(.90000006 0 0 .90000006 62.25 27)" font-size="13.33" font-family="Consolas"><tspan y="734" x="37.328126 44.657014 51.9859 59.31479 66.64368 73.972568 81.30145 88.63034">        </tspan></text>
<text fill="#444444" xml:space="preserve" transform="matrix(.90000006 0 0 .90000006 62.25 27)" font-size="13.33" font-family="Consolas"><tspan y="734" x="95.96875 103.29764 110.626529 117.955417 125.2843 132.61319 139.94208 147.27097 154.59986 161.92874 169.25763 176.58652 183.9154 191.2443 198.57318 205.90207 213.23096 220.55985 227.88874 235.21762 242.54651 249.8754 257.20429 264.53318 271.86207 279.19096 286.51985 293.84873 301.1776 308.5065 315.8354 323.16429 330.49317 337.82206 345.15095 352.47984 359.80873 367.1376">cv2.setMouseCallback(self.windowname, </tspan></text>
<text fill="#444444" xml:space="preserve" transform="matrix(.90000006 0 0 .90000006 62.25 27)" font-size="13.33" font-family="Consolas" font-weight="bold"><tspan y="734" x="374.46876 381.79765 389.12654 396.4554 403.7843 411.1132">lambda</tspan></text>
<text fill="#444444" xml:space="preserve" transform="matrix(.90000006 0 0 .90000006 62.25 27)" font-size="13.33" font-family="Consolas"><tspan y="734" x="418.45314 425.782 433.1109 440.4398 447.76869 455.09757 462.42646 469.75535 477.08424"> *args : </tspan></text>
<text fill="#669955" xml:space="preserve" transform="matrix(.90000006 0 0 .90000006 62.25 27)" font-size="13.33" font-family="Consolas"><tspan y="752" x="37.328126 44.657014 51.9859 59.31479">None</tspan></text>
<text fill="#444444" xml:space="preserve" transform="matrix(.90000006 0 0 .90000006 62.25 27)" font-size="13.33" font-family="Consolas"><tspan y="752" x="66.65625">)</tspan></text>
<text fill="#444444" xml:space="preserve" transform="matrix(.90000006 0 0 .90000006 62.25 27)" font-size="13.33" font-family="Consolas"><tspan y="771" x="8.328125 15.657013">37</tspan></text>
<text fill="#444444" xml:space="preserve" transform="matrix(.90000006 0 0 .90000006 62.25 27)" font-size="13.33" font-family="Consolas"><tspan y="771" x="37.328126 44.657014 51.9859 59.31479 66.64368 73.972568 81.30145 88.63034">        </tspan></text>
<text fill="#444444" xml:space="preserve" transform="matrix(.90000006 0 0 .90000006 62.25 27)" font-size="13.33" font-family="Consolas"><tspan y="771" x="95.96875 103.29764 110.626529 117.955417 125.2843 132.61319 139.94208 147.27097 154.59986 161.92874 169.25763 176.58652 183.9154 191.2443 198.57318 205.90207 213.23096 220.55985 227.88874 235.21762 242.54651 249.8754 257.20429">cv2.destroyAllWindows()</tspan></text>
<text fill="#444444" xml:space="preserve" transform="matrix(.90000006 0 0 .90000006 62.25 27)" font-size="13.33" font-family="Consolas"><tspan y="790" x="8.328125 15.657013">38</tspan></text>
<text fill="#444444" xml:space="preserve" transform="matrix(.90000006 0 0 .90000006 62.25 27)" font-size="13.33" font-family="Consolas"><tspan y="790" x="37.328126 44.657014 51.9859 59.31479 66.64368 73.972568 81.30145 88.63034">        </tspan></text>
<text fill="#444444" xml:space="preserve" transform="matrix(.90000006 0 0 .90000006 62.25 27)" font-size="13.33" font-family="Consolas" font-weight="bold"><tspan y="790" x="95.96875 103.29764 110.626529 117.955417 125.2843 132.61319">return</tspan></text>
<text fill="#444444" xml:space="preserve" transform="matrix(.90000006 0 0 .90000006 62.25 27)" font-size="13.33" font-family="Consolas"><tspan y="790" x="139.95313 147.28202 154.6109 161.93979 169.26868 176.59757 183.92646 191.25534 198.58423 205.91312 213.242 220.57089 227.89978 235.22867 242.55756 249.88645 257.21534 264.54423 271.8731 279.202 286.53089 293.85978"> self.point, self.img1</tspan></text>
<text fill="#444444" xml:space="preserve" transform="matrix(.90000006 0 0 .90000006 62.25 27)" font-size="13.33" font-family="Consolas"><tspan y="810" x="8.328125 15.657013">39</tspan></text>
<text fill="#444444" xml:space="preserve" transform="matrix(.90000006 0 0 .90000006 62.25 27)" font-size="13.33" font-family="Consolas" font-weight="bold"><tspan y="810" x="37.328126 44.657014 51.9859">def</tspan></text>
<text fill="#444444" xml:space="preserve" transform="matrix(.90000006 0 0 .90000006 62.25 27)" font-size="13.33" font-family="Consolas"><tspan y="810" x="59.328126"> </tspan></text>
<text fill="#880000" xml:space="preserve" transform="matrix(.90000006 0 0 .90000006 62.25 27)" font-size="13.33" font-family="Consolas" font-weight="bold"><tspan y="810" x="66.671878 74.00076 81.32965 88.65854 95.98743 103.316318 110.6452">reorder</tspan></text>
<text fill="#444444" xml:space="preserve" transform="matrix(.90000006 0 0 .90000006 62.25 27)" font-size="13.33" font-family="Consolas"><tspan y="810" x="117.984378">(</tspan></text>
<text fill="#444444" xml:space="preserve" transform="matrix(.90000006 0 0 .90000006 62.25 27)" font-size="13.33" font-family="Consolas"><tspan y="810" x="125.328128 132.65702 139.9859 147.31479 154.64368 161.97257 169.30146 176.63034">myPoints</tspan></text>
<text fill="#444444" xml:space="preserve" transform="matrix(.90000006 0 0 .90000006 62.25 27)" font-size="13.33" font-family="Consolas"><tspan y="810" x="183.96875 191.29764">):</tspan></text>
<text fill="#444444" xml:space="preserve" transform="matrix(.90000006 0 0 .90000006 62.25 27)" font-size="13.33" font-family="Consolas"><tspan y="829" x="8.328125 15.657013">40</tspan></text>
<text fill="#444444" xml:space="preserve" transform="matrix(.90000006 0 0 .90000006 62.25 27)" font-size="13.33" font-family="Consolas"><tspan y="829" x="37.328126 44.657014 51.9859 59.31479">    </tspan></text>
<text fill="#444444" xml:space="preserve" transform="matrix(.90000006 0 0 .90000006 62.25 27)" font-size="13.33" font-family="Consolas"><tspan y="829" x="66.65625 73.98514 81.314029 88.642917 95.9718 103.30069 110.62958 117.958469 125.28735 132.61624 139.94513 147.27402 154.6029 161.9318 169.26068 176.58957 183.91846 191.24735 198.57624 205.90512 213.23401 220.5629 227.89179 235.22068 242.54956 249.87845 257.20735 264.53623 271.8651">myPoints = myPoints.reshape((</tspan></text>
<text fill="#880000" xml:space="preserve" transform="matrix(.90000006 0 0 .90000006 62.25 27)" font-size="13.33" font-family="Consolas"><tspan y="829" x="279.20314">4</tspan></text>
<text fill="#444444" xml:space="preserve" transform="matrix(.90000006 0 0 .90000006 62.25 27)" font-size="13.33" font-family="Consolas"><tspan y="829" x="286.54689 293.87577">, </tspan></text>
<text fill="#880000" xml:space="preserve" transform="matrix(.90000006 0 0 .90000006 62.25 27)" font-size="13.33" font-family="Consolas"><tspan y="829" x="301.21876">2</tspan></text>
<text fill="#444444" xml:space="preserve" transform="matrix(.90000006 0 0 .90000006 62.25 27)" font-size="13.33" font-family="Consolas"><tspan y="829" x="308.5625 315.8914">))</tspan></text>
<text fill="#444444" xml:space="preserve" transform="matrix(.90000006 0 0 .90000006 62.25 27)" font-size="13.33" font-family="Consolas"><tspan y="848" x="8.328125 15.657013">41</tspan></text>
<text fill="#444444" xml:space="preserve" transform="matrix(.90000006 0 0 .90000006 62.25 27)" font-size="13.33" font-family="Consolas"><tspan y="848" x="37.328126 44.657014 51.9859 59.31479">    </tspan></text>
<text fill="#444444" xml:space="preserve" transform="matrix(.90000006 0 0 .90000006 62.25 27)" font-size="13.33" font-family="Consolas"><tspan y="848" x="66.65625 73.98514 81.314029 88.642917 95.9718 103.30069 110.62958 117.958469 125.28735 132.61624 139.94513 147.27402 154.6029 161.9318 169.26068 176.58957 183.91846 191.24735 198.57624 205.90512 213.23401 220.5629 227.89179 235.22068">myPointsNew = np.zeros((</tspan></text>
<text fill="#880000" xml:space="preserve" transform="matrix(.90000006 0 0 .90000006 62.25 27)" font-size="13.33" font-family="Consolas"><tspan y="848" x="242.5625">4</tspan></text>
<text fill="#444444" xml:space="preserve" transform="matrix(.90000006 0 0 .90000006 62.25 27)" font-size="13.33" font-family="Consolas"><tspan y="848" x="249.90625 257.23515">, </tspan></text>
<text fill="#880000" xml:space="preserve" transform="matrix(.90000006 0 0 .90000006 62.25 27)" font-size="13.33" font-family="Consolas"><tspan y="848" x="264.57814">1</tspan></text>
<text fill="#444444" xml:space="preserve" transform="matrix(.90000006 0 0 .90000006 62.25 27)" font-size="13.33" font-family="Consolas"><tspan y="848" x="271.92189 279.25077">, </tspan></text>
<text fill="#880000" xml:space="preserve" transform="matrix(.90000006 0 0 .90000006 62.25 27)" font-size="13.33" font-family="Consolas"><tspan y="848" x="286.59376">2</tspan></text>
<text fill="#444444" xml:space="preserve" transform="matrix(.90000006 0 0 .90000006 62.25 27)" font-size="13.33" font-family="Consolas"><tspan y="848" x="293.9375 301.2664 308.59529 315.92417 323.25306 330.58195 337.91084 345.23973 352.5686 359.8975 367.22639 374.55528 381.88417 389.21305 396.54194 403.87083 411.1997 418.5286">), dtype=np.int32)</tspan></text>
<text fill="#444444" xml:space="preserve" transform="matrix(.90000006 0 0 .90000006 62.25 27)" font-size="13.33" font-family="Consolas"><tspan y="868" x="8.328125 15.657013">42</tspan></text>
<text fill="#444444" xml:space="preserve" transform="matrix(.90000006 0 0 .90000006 62.25 27)" font-size="13.33" font-family="Consolas"><tspan y="868" x="37.328126 44.657014 51.9859 59.31479">    </tspan></text>
<text fill="#444444" xml:space="preserve" transform="matrix(.90000006 0 0 .90000006 62.25 27)" font-size="13.33" font-family="Consolas"><tspan y="868" x="66.65625 73.98514 81.314029 88.642917 95.9718 103.30069 110.62958 117.958469 125.28735 132.61624 139.94513 147.27402 154.6029 161.9318 169.26068">add = myPoints.</tspan></text>
<text fill="#397300" xml:space="preserve" transform="matrix(.90000006 0 0 .90000006 62.25 27)" font-size="13.33" font-family="Consolas"><tspan y="868" x="176.59375 183.92264 191.25153">sum</tspan></text>
<text fill="#444444" xml:space="preserve" transform="matrix(.90000006 0 0 .90000006 62.25 27)" font-size="13.33" font-family="Consolas"><tspan y="868" x="198.59375">(</tspan></text>
<text fill="#880000" xml:space="preserve" transform="matrix(.90000006 0 0 .90000006 62.25 27)" font-size="13.33" font-family="Consolas"><tspan y="868" x="205.9375">1</tspan></text>
<text fill="#444444" xml:space="preserve" transform="matrix(.90000006 0 0 .90000006 62.25 27)" font-size="13.33" font-family="Consolas"><tspan y="868" x="213.28125">)</tspan></text>
</g>
</svg>
